<?xml version="1.0" encoding="utf-8"?>
<svg xmlns="http://www.w3.org/2000/svg" viewBox="22.151 13.808 400 300" width="400px" height="300px"><defs><filter id="glow" x="-20%" y="-20%" width="140%" height="140%"><feGaussianBlur stdDeviation="4" result="blur"/><feComposite in="SourceGraphic" in2="blur" operator="over"/></filter><linearGradient id="audioGradient" x1="0%" y1="0%" x2="100%" y2="100%"><stop offset="0" stop-color="#F472B6"/><stop offset="1" stop-color="#2563EB"/></linearGradient></defs><g id="object-2" transform="matrix(1, 0, 0, 1, 0, -7.105427357601002e-15)"><rect width="400" height="300" rx="15" fill="#1E293B" x="22.151" y="13.808" id="object-1"/><g transform="matrix(1, 0, 0, 1, 217.554565, 168.808014)" filter="url(#glow)"><g transform="translate(0, -40)"><line x1="-100" y1="0" x2="100" y2="0" stroke="#475569" stroke-width="1" stroke-dasharray="4 2"/><text x="-120" y="0" font-family="monospace" font-size="10" fill="#94A3B8" text-anchor="middle" alignment-baseline="middle" style="white-space: pre;">INPUT</text><path d="M -100 0 Q -90 -40 -80 0 Q -70 50 -60 0 Q -50 -20 -40 0 Q -30 60 -20 0 Q -10 -50 0 0 Q 10 20 20 0 Q 30 -70 40 0 Q 50 30 60 0 Q 70 -40 80 0 Q 90 60 100 0" fill="none" stroke="#F472B6" stroke-width="2"/></g><line x1="0" y1="-20" x2="0" y2="0" stroke="url(#audioGradient)" stroke-width="2" stroke-dasharray="4 2"/><polygon points="-5,0 5,0 0,10" fill="url(#audioGradient)"/><g transform="matrix(1, 0, 0, 1, 0, 45.000008)"><line x1="-100" y1="0" x2="100" y2="0" stroke="#475569" stroke-width="1" stroke-dasharray="4 2"/><line x1="-100" y1="-25" x2="100" y2="-25" stroke="#475569" stroke-width="1" stroke-dasharray="2 2" opacity="0.5"/><line x1="-100" y1="25" x2="100" y2="25" stroke="#475569" stroke-width="1" stroke-dasharray="2 2" opacity="0.5"/><text x="-120" y="0" font-family="monospace" font-size="10" fill="#94A3B8" text-anchor="middle" alignment-baseline="middle" style="white-space: pre;">OUTPUT</text><path d="M -100 0 Q -90 -20 -80 0 Q -70 20 -60 0 Q -50 -15 -40 0 Q -30 20 -20 0 Q -10 -20 0 0 Q 10 15 20 0 Q 30 -20 40 0 Q 50 15 60 0 Q 70 -20 80 0 Q 90 20 100 0" fill="none" stroke="#2563EB" stroke-width="2"/></g><g transform="translate(130, 0)"><circle cy="5" r="15" fill="none" stroke="url(#audioGradient)" stroke-width="3"/><line x1="0" y1="0" x2="0" y2="-12" stroke="url(#audioGradient)" stroke-width="2" stroke-linecap="round"/><circle cx="0" cy="0" r="3" fill="url(#audioGradient)"/></g></g></g></svg>