<?xml version="1.0" encoding="utf-8"?>
<svg xmlns="http://www.w3.org/2000/svg" viewBox="52.234 82.574 400 300" width="400px" height="300px"><defs><filter id="glow" x="-20%" y="-20%" width="140%" height="140%"><feGaussianBlur stdDeviation="4" result="blur"/><feComposite in="SourceGraphic" in2="blur" operator="over"/></filter><linearGradient id="chainGradient" x1="0%" y1="0%" x2="100%" y2="100%"><stop offset="0" stop-color="#10B981"/><stop offset="1" stop-color="#6366F1"/></linearGradient></defs><g id="object-2"><rect width="400" height="300" rx="15" fill="#1E293B" x="52.234" y="82.574" id="object-0"/><g transform="matrix(1, 0, 0, 1, 252.234192, 232.573746)" filter="url(#glow)" id="object-1"><g><rect x="-140" y="-25" width="50" height="50" rx="5" fill="#0F172A" stroke="url(#chainGradient)" stroke-width="2"/><text x="-115" y="-8" font-family="monospace" font-size="8" fill="white" text-anchor="middle" style="white-space: pre;">BLOCK</text><text x="-115" y="5" font-family="monospace" font-size="8" fill="white" text-anchor="middle" style="white-space: pre;">0x18F...</text><rect x="-65" y="-25" width="50" height="50" rx="5" fill="#0F172A" stroke="url(#chainGradient)" stroke-width="2"/><text x="-40" y="-8" font-family="monospace" font-size="8" fill="white" text-anchor="middle" style="white-space: pre;">BLOCK</text><text x="-40" y="5" font-family="monospace" font-size="8" fill="white" text-anchor="middle" style="white-space: pre;">0x2A3...</text><rect x="10" y="-25" width="50" height="50" rx="5" fill="#0F172A" stroke="url(#chainGradient)" stroke-width="2"/><text x="35" y="-8" font-family="monospace" font-size="8" fill="white" text-anchor="middle" style="white-space: pre;">BLOCK</text><text x="35" y="5" font-family="monospace" font-size="8" fill="white" text-anchor="middle" style="white-space: pre;">0x4F2...</text><rect x="85" y="-25" width="50" height="50" rx="5" fill="#0F172A" stroke="url(#chainGradient)" stroke-width="2"/><text x="110" y="-8" font-family="monospace" font-size="8" fill="white" text-anchor="middle" style="white-space: pre;">BLOCK</text><text x="110" y="5" font-family="monospace" font-size="8" fill="white" text-anchor="middle" style="white-space: pre;">0x7B9...</text><line x1="-90" y1="0" x2="-65" y2="0" stroke="url(#chainGradient)" stroke-width="3"/><line x1="-15" y1="0" x2="10" y2="0" stroke="url(#chainGradient)" stroke-width="3"/><line x1="60" y1="0" x2="85" y2="0" stroke="url(#chainGradient)" stroke-width="3"/></g><g transform="translate(0, -70)"><rect x="-50" y="-20" width="100" height="40" rx="5" fill="#0F172A" stroke="url(#chainGradient)" stroke-width="2"/><text x="0" y="4.05" font-family="monospace" font-size="12" fill="white" text-anchor="middle" alignment-baseline="middle" style="white-space: pre;">FRONTEND</text></g><g transform="translate(0, 70)"><rect x="-50" y="-20" width="100" height="40" rx="5" fill="#0F172A" stroke="url(#chainGradient)" stroke-width="2"/><text x="0" y="4.05" font-family="monospace" font-size="12" fill="white" text-anchor="middle" alignment-baseline="middle" style="white-space: pre;">BACKEND</text></g><line x1="0" y1="-50" x2="0" y2="-30" stroke="url(#chainGradient)" stroke-width="2" stroke-dasharray="4 2"/><line x1="0" y1="30" x2="0" y2="50" stroke="url(#chainGradient)" stroke-width="2" stroke-dasharray="4 2"/></g></g></svg>