<?xml version="1.0" encoding="utf-8"?>
<svg xmlns="http://www.w3.org/2000/svg" viewBox="50.913 61.507 400 300" width="400px" height="300px"><defs><filter id="glow" x="-20%" y="-20%" width="140%" height="140%"><feGaussianBlur stdDeviation="4" result="blur"/><feComposite in="SourceGraphic" in2="blur" operator="over"/></filter></defs><g id="object-1"><rect width="400" height="300" rx="15" fill="#1E293B" x="50.913" y="61.507"/><g transform="matrix(1, 0, 0, 1, 250.912949, 211.507278)" filter="url(#glow)" style=""><g transform="translate(-90, -50)"><rect x="0" y="0" width="30" height="30" rx="4" fill="#BFDBFE"/><rect x="35" y="0" width="30" height="30" rx="4" fill="#93C5FD"/><rect x="70" y="0" width="30" height="30" rx="4" fill="#60A5FA"/><rect x="105" y="0" width="30" height="30" rx="4" fill="#3B82F6"/><rect x="140" y="0" width="30" height="30" rx="4" fill="#2563EB"/><rect x="0" y="35" width="30" height="30" rx="4" fill="#E9D5FF"/><rect x="35" y="35" width="30" height="30" rx="4" fill="#D8B4FE"/><rect x="70" y="35" width="30" height="30" rx="4" fill="#C084FC"/><rect x="105" y="35" width="30" height="30" rx="4" fill="#A855F7"/><rect x="140" y="35" width="30" height="30" rx="4" fill="#9333EA"/><rect x="0" y="70" width="30" height="30" rx="4" fill="#BBF7D0"/><rect x="35" y="70" width="30" height="30" rx="4" fill="#86EFAC"/><rect x="70" y="70" width="30" height="30" rx="4" fill="#4ADE80"/><rect x="105" y="70" width="30" height="30" rx="4" fill="#22C55E"/><rect x="140" y="70" width="30" height="30" rx="4" fill="#16A34A"/></g><g transform="translate(100, -30)"><circle cx="0" cy="0" r="25" style="fill: rgb(147, 51, 234);"/><line x1="-8" y1="-8" x2="8" y2="8" stroke="white" stroke-width="2"/><line x1="8" y1="-8" x2="-8" y2="8" stroke="white" stroke-width="2"/></g><rect x="60" y="20" width="80" height="20" rx="5" fill="#0F172A" stroke="url(#colorGradient)" stroke-width="1"/><text x="100" y="34" font-family="monospace" font-size="10" fill="white" text-anchor="middle" style="white-space: pre;">#9333EA</text></g></g></svg>