<?xml version="1.0" encoding="utf-8"?>
<svg xmlns="http://www.w3.org/2000/svg" viewBox="56.604 63.739 400 300" width="400px" height="300px"><defs><filter id="glow" x="-20%" y="-20%" width="140%" height="140%"><feGaussianBlur stdDeviation="4" result="blur"/><feComposite in="SourceGraphic" in2="blur" operator="over"/></filter><linearGradient id="cryptGradient" x1="0%" y1="0%" x2="100%" y2="100%"><stop offset="0" stop-color="#10B981"/><stop offset="1" stop-color="#3B82F6"/></linearGradient></defs><g id="object-3"><rect width="400" height="300" rx="15" fill="#1E293B" x="56.604" y="63.739" id="object-1"/><g transform="matrix(1, 0, 0, 1, 256.603973, 213.738998)" filter="url(#glow)" id="object-2"><rect x="-75" y="-55" width="150" height="110" rx="5" fill="#0F172A" stroke="url(#cryptGradient)" stroke-width="2"/><rect x="-65" y="-45" width="130" height="90" rx="3" fill="#1E293B"/><g stroke="url(#cryptGradient)" stroke-width="1" opacity="0.7"><line x1="-60" y1="-40" x2="-20" y2="-40"/><line x1="-50" y1="-30" x2="-10" y2="-30"/><line x1="-65" y1="-20" x2="-25" y2="-20"/><line x1="-55" y1="-10" x2="-15" y2="-10"/><line x1="-40" y1="0" x2="0" y2="0"/><line x1="-60" y1="10" x2="-20" y2="10"/><line x1="-50" y1="20" x2="-10" y2="20"/><line x1="-65" y1="30" x2="-25" y2="30"/></g><text x="0" y="2.688" font-family="monospace" font-size="8" fill="url(#cryptGradient)" opacity="0.3" text-anchor="middle" style="white-space: pre;">P@$$w0rd</text><g transform="matrix(0.8, 0, 0, 0.8, 44.569328, -22.553448)"><path d="M -5 -5 L -5 -11.25 L -5 -15 C -5.067 -21.287 4.81 -21.863 5 -15 L 5 -5" fill="none" stroke="url(#cryptGradient)" stroke-width="3" stroke-linecap="round"/><rect x="-15" y="-5" width="30" height="30" rx="5" fill="none" stroke="url(#cryptGradient)" stroke-width="3"/><circle cx="0" cy="10" r="3" fill="url(#cryptGradient)"/></g></g></g></svg>