<?xml version="1.0" encoding="utf-8"?>
<svg xmlns="http://www.w3.org/2000/svg" viewBox="63.607 45.174 400 300" width="400px" height="300px"><defs><filter id="glow" x="-20%" y="-20%" width="140%" height="140%"><feGaussianBlur stdDeviation="4" result="blur"/><feComposite in="SourceGraphic" in2="blur" operator="over"/></filter><linearGradient id="queensGradient" x1="0%" y1="0%" x2="100%" y2="100%"><stop offset="0" stop-color="#EC4899"/><stop offset="1" stop-color="#8B5CF6"/></linearGradient></defs><g id="object-1"><rect width="400" height="300" rx="15" fill="#1E293B" x="63.607" y="45.174"/><g transform="matrix(1, 0, 0, 1, -14.2078, 1.194342)"><g><g transform="matrix(1, 0, 0, 1, 277.814575, 183.97966)" filter="url(#glow)"><g id="chessBoard"><rect fill="#2D3748" x="-90" y="-90" width="45" height="45"/><rect x="-45" y="-90" width="45" height="45" fill="#1A202C"/><rect x="0" y="-90" width="45" height="45" fill="#2D3748"/><rect x="45" y="-90" width="45" height="45" fill="#1A202C"/><rect x="-90" y="-45" width="45" height="45" fill="#1A202C"/><rect x="-45" y="-45" width="45" height="45" fill="#2D3748"/><rect x="0" y="-45" width="45" height="45" fill="#1A202C"/><rect x="45" y="-45" width="45" height="45" fill="#2D3748"/><rect x="-90" y="0" width="45" height="45" fill="#2D3748"/><rect x="-45" y="0" width="45" height="45" fill="#1A202C"/><rect x="0" y="0" width="45" height="45" fill="#2D3748"/><rect x="45" y="0" width="45" height="45" fill="#1A202C"/><rect x="-90" y="45" width="45" height="45" fill="#1A202C"/><rect x="-45" y="45" width="45" height="45" fill="#2D3748"/><rect x="0" y="45" width="45" height="45" fill="#1A202C"/><rect x="45" y="45" width="45" height="45" fill="#2D3748"/></g><g transform="matrix(1, 0, 0, 1, 0.000392, 110)"><rect x="-80" y="0" width="160" height="25" rx="5" fill="#0F172A" stroke="url(#queensGradient)" stroke-width="2"/><text x="0" y="17.149" font-family="monospace" font-size="14" fill="white" text-anchor="middle" style="white-space: pre;">...Q...Q...Q</text></g></g><rect x="187.815" y="93.98" width="180" height="180" rx="5" stroke-width="3" stroke="url(#queensGradient)" style="fill: rgba(15, 23, 42, 0);"/><g transform="matrix(1, 0, 0, 1, 277.815002, 93.979645)"><path d="M0,-25 L25,10 L15,15 L0,5 L-15,15 L-25,10 Z" fill="none" stroke="url(#queensGradient)" stroke-width="3"/><g transform="matrix(1, 0, 0, 1, 0, 2.5)"><circle cx="-17" cy="-5" r="4" fill="url(#queensGradient)"/><circle cx="0" cy="-10" r="4" fill="url(#queensGradient)"/><circle cx="17" cy="-5" r="4" fill="url(#queensGradient)"/></g></g></g><g id="queens" transform="matrix(1, 0, 0, 1, 277.338165, 184.695267)"><g transform="matrix(0.642788, 0.766044, -0.766044, 0.642788, -20.406843, 8.002832)" style="transform-origin: 0px 13.5px 0px;"><path d="M0,0 L5,15 L-5,15 Z" fill="url(#queensGradient)"/><circle cx="0" cy="20" r="7" fill="url(#queensGradient)"/></g><g transform="matrix(-1, 0, 0, -1, -67.561447, -81.151405)" style="transform-origin: 0px 13.5px 0px;"><path d="M0,0 L5,15 L-5,15 Z" fill="url(#queensGradient)"/><circle cx="0" cy="20" r="7" fill="url(#queensGradient)"/></g><g transform="matrix(-0.017452, -0.999848, 0.999848, -0.017452, 68.453682, -37.404949)" style="transform-origin: 0px 13.5px 0px;"><path d="M0,0 L5,15 L-5,15 Z" fill="url(#queensGradient)"/><circle cx="0" cy="20" r="7" fill="url(#queensGradient)"/></g></g></g></g></svg>