<?xml version="1.0" encoding="utf-8"?>
<svg xmlns="http://www.w3.org/2000/svg" viewBox="56.254 71.118 400 300" width="400px" height="300px"><defs><filter id="glow" x="-20%" y="-20%" width="140%" height="140%"><feGaussianBlur stdDeviation="4" result="blur"/><feComposite in="SourceGraphic" in2="blur" operator="over"/></filter><linearGradient id="secureGradient" x1="0%" y1="0%" x2="100%" y2="100%"><stop offset="0" stop-color="#EC4899"/><stop offset="1" stop-color="#8B5CF6"/></linearGradient></defs><g id="object-1" transform="matrix(1, 0, 0, 1, 2.842170943040401e-14, -8.881784197001252e-16)"><rect width="400" height="300" rx="15" fill="#1E293B" x="56.254" y="71.118"/><g transform="matrix(1, 0, 0, 1, 256.253998, 231.117996)" filter="url(#glow)"><rect x="-140" y="-40" width="80" height="80" rx="10" fill="#0F172A" stroke="url(#secureGradient)" stroke-width="3"/><text x="-100" y="4.007" font-family="monospace" font-size="12" fill="white" text-anchor="middle" style="white-space: pre;">CLIENT</text><rect x="60" y="-40" width="80" height="80" rx="10" fill="#0F172A" stroke="url(#secureGradient)" stroke-width="3"/><text x="100" y="4.007" font-family="monospace" font-size="12" fill="white" text-anchor="middle" style="white-space: pre;">SERVER</text><rect x="-50" y="-15" width="100" height="30" rx="15" fill="none" stroke="url(#secureGradient)" stroke-width="3"/><g opacity="0.8" transform="matrix(1, 0, 0, 1, -3.061001, -0.235771)"><text x="-24.424" y="3.534" font-family="monospace" font-size="10" fill="url(#secureGradient)" text-anchor="middle" style="white-space: pre;">01010</text><text x="3.061" y="3.534" font-family="monospace" font-size="10" fill="url(#secureGradient)" text-anchor="middle" style="white-space: pre;">11001</text><text x="30.546" y="3.534" font-family="monospace" font-size="10" fill="url(#secureGradient)" text-anchor="middle" style="white-space: pre;">00101</text></g><path d="M 0 -60 L 20 -50 L 20 -20 L 0 -10 L -20 -20 L -20 -50 Z" fill="none" stroke="url(#secureGradient)" stroke-width="3"/><path d="M -12.5 -35 L -7.5 -30 L -2.5 -40 L 7.5 -30 L 12.5 -35" fill="none" stroke="url(#secureGradient)" stroke-width="2" stroke-linecap="round"/></g></g></svg>