<?xml version="1.0" encoding="utf-8"?>
<svg xmlns="http://www.w3.org/2000/svg" viewBox="69.873 33.174 400 300" width="400px" height="300px"><defs><filter id="glow" x="-20%" y="-20%" width="140%" height="140%"><feGaussianBlur stdDeviation="4" result="blur"/><feComposite in="SourceGraphic" in2="blur" operator="over"/></filter><linearGradient id="templatesGradient" x1="0%" y1="0%" x2="100%" y2="100%"><stop offset="0" stop-color="#F472B6"/><stop offset="1" stop-color="#F59E0B"/></linearGradient></defs><g id="object-1"><rect width="400" height="300" rx="15" fill="#1E293B" x="69.873" y="33.174"/><g transform="matrix(1, 0, 0, 1, 275, 183.173904)" filter="url(#glow)"><rect x="-100" y="-70" width="200" height="140" rx="5" fill="#0F172A" stroke="url(#templatesGradient)" stroke-width="2"/><rect fill="#334155" style="stroke-miterlimit: 4.67; stroke-width: 5px;" x="-99.1" y="-69.026" width="198.134" height="21.164" rx="4" ry="4"/><rect x="-99.11" y="-69.047" width="70" height="21.2" rx="4" fill="#475569" style=""/><text x="-64.11" y="-55.053" font-family="monospace" font-size="10" fill="white" text-anchor="middle" style="white-space: pre;">CVE-DB</text><rect x="-90.295" y="-42" width="180" height="16" rx="3" fill="#334155" stroke="#475569" stroke-width="1"/><text x="-80" y="-31.397" font-family="monospace" font-size="8" fill="#94A3B8" style="white-space: pre;">Search CVE/CWE...</text><g transform="matrix(1, 0, 0, 1, -0.294544, 5.596322)"><rect x="-90" y="-20" width="180" height="20" rx="2" fill="#334155" opacity="0.7"/><text x="-80" y="-7.05" font-family="monospace" font-size="9" fill="white" style="white-space: pre;">CVE-2023-12345</text><text x="30" y="-7.05" font-family="monospace" font-size="9" fill="#F472B6" style="white-space: pre;">CRITICAL</text><rect x="-90" y="5" width="180" height="20" rx="2" fill="#334155" opacity="0.7"/><text x="-80" y="17.95" font-family="monospace" font-size="9" fill="white" style="white-space: pre;">CWE-787</text><text x="30" y="17.95" font-family="monospace" font-size="9" fill="#F59E0B" style="white-space: pre;">HIGH</text><rect x="-90" y="30" width="180" height="20" rx="2" fill="#334155" opacity="0.7"/><text x="-80" y="42.95" font-family="monospace" font-size="9" fill="white" style="white-space: pre;">TEMPLATE-0042</text><text x="30" y="42.95" font-family="monospace" font-size="9" fill="#60A5FA" style="white-space: pre;">MEDIUM</text></g><g transform="matrix(1, 0, 0, 1, -130, 0)"><rect x="-20" y="-60" width="40" height="120" rx="5" fill="#334155"/><circle r="10" fill="url(#templatesGradient)" opacity="0.8" cy="-40"/><circle r="10" fill="#475569" cy="-5"/><circle r="10" fill="#475569" cy="30"/></g></g></g></svg>