<svg viewBox="0 0 400 300" xmlns="http://www.w3.org/2000/svg">
  <defs>
    <linearGradient id="cryptGradient" x1="0%" y1="0%" x2="100%" y2="100%">
      <stop offset="0%" stop-color="#10B981" />
      <stop offset="100%" stop-color="#3B82F6" />
    </linearGradient>
    <filter id="glow" x="-20%" y="-20%" width="140%" height="140%">
      <feGaussianBlur stdDeviation="4" result="blur" />
      <feComposite in="SourceGraphic" in2="blur" operator="over" />
    </filter>
  </defs>
  
  <!-- Background -->
  <rect width="400" height="300" rx="15" fill="#1E293B" />
  
  <!-- Image with hidden password concept -->
  <g transform="translate(200, 135)" filter="url(#glow)">
    <!-- Main image frame -->
    <rect x="-75" y="-55" width="150" height="110" rx="5" fill="#0F172A" stroke="url(#cryptGradient)" stroke-width="2" />
    
    <!-- Abstract image representation -->
    <rect x="-65" y="-45" width="130" height="90" rx="3" fill="#1E293B" />
    
    <!-- Pattern representing hidden data -->
    <g stroke="url(#cryptGradient)" stroke-width="1" opacity="0.7">
      <line x1="-60" y1="-40" x2="-20" y2="-40" />
      <line x1="-50" y1="-30" x2="-10" y2="-30" />
      <line x1="-65" y1="-20" x2="-25" y2="-20" />
      <line x1="-55" y1="-10" x2="-15" y2="-10" />
      <line x1="-40" y1="0" x2="0" y2="0" />
      <line x1="-60" y1="10" x2="-20" y2="10" />
      <line x1="-50" y1="20" x2="-10" y2="20" />
      <line x1="-65" y1="30" x2="-25" y2="30" />
    </g>
    
    <!-- Password hidden within the image -->
    <text x="25" y="0" font-family="monospace" font-size="8" fill="url(#cryptGradient)" opacity="0.3" text-anchor="middle">P@$$w0rd</text>
    
    <!-- Lock icon -->
    <g transform="translate(40, -20) scale(0.8)">
      <rect x="-15" y="-5" width="30" height="30" rx="5" fill="none" stroke="url(#cryptGradient)" stroke-width="3" />
      <path d="M -5 -5 L -5 -15 Q 0 -25 5 -15 L 5 -5" fill="none" stroke="url(#cryptGradient)" stroke-width="3" stroke-linecap="round" />
      <circle cx="0" cy="10" r="3" fill="url(#cryptGradient)" />
    </g>
  </g>
  
  <!-- Text 
  <text x="200" y="260" font-family="monospace" font-size="24" fill="white" text-anchor="middle">CRYPT</text>-->
</svg>