<?xml version="1.0" encoding="utf-8"?>
<svg xmlns="http://www.w3.org/2000/svg" viewBox="62.597 57.894 400 300" width="400px" height="300px"><defs><filter id="glow" x="-20%" y="-20%" width="140%" height="140%"><feGaussianBlur stdDeviation="4" result="blur"/><feComposite in="SourceGraphic" in2="blur" operator="over"/></filter><linearGradient id="passGradient" x1="0%" y1="0%" x2="100%" y2="100%"><stop offset="0" stop-color="#F59E0B"/><stop offset="1" stop-color="#EF4444"/></linearGradient></defs><g id="object-1" transform="matrix(1, 0, 0, 1, -5.684341886080802e-14, 0)"><rect width="400" height="300" rx="15" fill="#1E293B" x="62.597" y="57.894"/><g transform="matrix(1, 0, 0, 1, 262.596558, 207.894592)" filter="url(#glow)"><rect x="-80" y="-60.001" width="160" height="120" rx="10" fill="#0F172A" stroke="url(#passGradient)" stroke-width="3"/><rect x="-70" y="-50" width="140" height="100" rx="5" fill="none" stroke="url(#passGradient)" stroke-width="1"/><circle cx="0" cy="0" r="25" fill="#1E293B" stroke="url(#passGradient)" stroke-width="2"/><circle cx="0" cy="0" r="5" fill="url(#passGradient)"/><line x1="0" y1="0" x2="0" y2="-20" stroke="url(#passGradient)" stroke-width="2"/><g transform="translate(-50, -30)"><g transform="matrix(1, 0, 0, 1, 0.000006, -7.499995)"><g><rect y="0" width="100" height="15" rx="2" fill="#1E293B" stroke="url(#passGradient)" stroke-width="1" opacity="0.5" x="0"/><text x="50" y="10" font-family="monospace" font-size="8" fill="white" text-anchor="middle" style="white-space: pre;">••••••••</text></g><g transform="matrix(1, 0, 0, 1, 0, 30.000006)"><g><rect width="100" height="15" rx="2" fill="#1E293B" stroke="url(#passGradient)" stroke-width="1" opacity="0.5"/><text x="50" y="10" font-family="monospace" font-size="8" fill="white" text-anchor="middle" style="white-space: pre;">••••••••••••</text></g></g><g transform="matrix(1, 0, 0, 1, 0, 60.000004)"><g><rect y="0" width="100" height="15" rx="2" fill="#1E293B" stroke="url(#passGradient)" stroke-width="1" opacity="0.5" x="0"/><text x="50" y="10" font-family="monospace" font-size="8" fill="white" text-anchor="middle" style="white-space: pre;">•••••••</text></g></g></g></g></g></g></svg>