<svg viewBox="0 0 400 300" xmlns="http://www.w3.org/2000/svg">
  <defs>
    <linearGradient id="passGradient" x1="0%" y1="0%" x2="100%" y2="100%">
      <stop offset="0%" stop-color="#F59E0B" />
      <stop offset="100%" stop-color="#EF4444" />
    </linearGradient>
    <filter id="glow" x="-20%" y="-20%" width="140%" height="140%">
      <feGaussianBlur stdDeviation="4" result="blur" />
      <feComposite in="SourceGraphic" in2="blur" operator="over" />
    </filter>
  </defs>
  
  <!-- Background -->
  <rect width="400" height="300" rx="15" fill="#1E293B" />
  
  <!-- Password vault visualization -->
  <g transform="translate(200, 150)" filter="url(#glow)">
    <!-- Vault/safe outline -->
    <rect x="-80" y="-60" width="160" height="120" rx="10" fill="#0F172A" stroke="url(#passGradient)" stroke-width="3" />
    
    <!-- Vault door detail -->
    <rect x="-70" y="-50" width="140" height="100" rx="5" fill="none" stroke="url(#passGradient)" stroke-width="1" />
    
    <!-- Lock dial -->
    <circle cx="0" cy="0" r="25" fill="#1E293B" stroke="url(#passGradient)" stroke-width="2" />
    <circle cx="0" cy="0" r="5" fill="url(#passGradient)" />
    <line x1="0" y1="0" x2="0" y2="-20" stroke="url(#passGradient)" stroke-width="2" />
    
    <!-- Password entries -->
    <g transform="translate(-50, -30)">
      <rect x="0" y="0" width="100" height="15" rx="2" fill="#1E293B" stroke="url(#passGradient)" stroke-width="1" opacity="0.5" />
      <text x="50" y="10" font-family="monospace" font-size="8" fill="white" text-anchor="middle">••••••••</text>
    </g>
    
    <g transform="translate(-50, 0)">
      <rect x="0" y="0" width="100" height="15" rx="2" fill="#1E293B" stroke="url(#passGradient)" stroke-width="1" opacity="0.5" />
      <text x="50" y="10" font-family="monospace" font-size="8" fill="white" text-anchor="middle">••••••••••••</text>
    </g>
    
    <g transform="translate(-50, 30)">
      <rect x="0" y="0" width="100" height="15" rx="2" fill="#1E293B" stroke="url(#passGradient)" stroke-width="1" opacity="0.5" />
      <text x="50" y="10" font-family="monospace" font-size="8" fill="white" text-anchor="middle">•••••••</text>
    </g>
  </g>
  
  <!-- Text
  <text x="200" y="260" font-family="monospace" font-size="24" fill="white" text-anchor="middle">PASS</text> -->
</svg>