<svg viewBox="0 0 400 300" xmlns="http://www.w3.org/2000/svg">
  <defs>
    <linearGradient id="queensGradient" x1="0%" y1="0%" x2="100%" y2="100%">
      <stop offset="0%" stop-color="#EC4899" />
      <stop offset="100%" stop-color="#8B5CF6" />
    </linearGradient>
    <filter id="glow" x="-20%" y="-20%" width="140%" height="140%">
      <feGaussianBlur stdDeviation="4" result="blur" />
      <feComposite in="SourceGraphic" in2="blur" operator="over" />
    </filter>
  </defs>
  
  <!-- Background -->
  <rect width="400" height="300" rx="15" fill="#1E293B" />
  
  <!-- Chess Board -->
  <g transform="translate(200, 150)" filter="url(#glow)">
    <!-- Chess board with n-queens visualization -->
    <rect x="-90" y="-90" width="180" height="180" rx="5" fill="#0F172A" stroke="url(#queensGradient)" stroke-width="3" />
    
    <!-- Chess board squares -->
    <g id="chessBoard">
      <!-- Row 1 -->
      <rect x="-90" y="-90" width="45" height="45" fill="#2D3748" />
      <rect x="-45" y="-90" width="45" height="45" fill="#1A202C" />
      <rect x="0" y="-90" width="45" height="45" fill="#2D3748" />
      <rect x="45" y="-90" width="45" height="45" fill="#1A202C" />
      
      <!-- Row 2 -->
      <rect x="-90" y="-45" width="45" height="45" fill="#1A202C" />
      <rect x="-45" y="-45" width="45" height="45" fill="#2D3748" />
      <rect x="0" y="-45" width="45" height="45" fill="#1A202C" />
      <rect x="45" y="-45" width="45" height="45" fill="#2D3748" />
      
      <!-- Row 3 -->
      <rect x="-90" y="0" width="45" height="45" fill="#2D3748" />
      <rect x="-45" y="0" width="45" height="45" fill="#1A202C" />
      <rect x="0" y="0" width="45" height="45" fill="#2D3748" />
      <rect x="45" y="0" width="45" height="45" fill="#1A202C" />
      
      <!-- Row 4 -->
      <rect x="-90" y="45" width="45" height="45" fill="#1A202C" />
      <rect x="-45" y="45" width="45" height="45" fill="#2D3748" />
      <rect x="0" y="45" width="45" height="45" fill="#1A202C" />
      <rect x="45" y="45" width="45" height="45" fill="#2D3748" />
    </g>
    
    <!-- Queens -->
    <g id="queens">
      <!-- Queen 1 -->
      <g transform="translate(-67.5, -67.5)">
        <path d="M0,0 L5,15 L-5,15 Z" fill="url(#queensGradient)" />
        <circle cx="0" cy="20" r="7" fill="url(#queensGradient)" />
      </g>
      
      <!-- Queen 2 -->
      <g transform="translate(-22.5, -22.5)">
        <path d="M0,0 L5,15 L-5,15 Z" fill="url(#queensGradient)" />
        <circle cx="0" cy="20" r="7" fill="url(#queensGradient)" />
      </g>
      
      <!-- Queen 3 -->
      <g transform="translate(22.5, 22.5)">
        <path d="M0,0 L5,15 L-5,15 Z" fill="url(#queensGradient)" />
        <circle cx="0" cy="20" r="7" fill="url(#queensGradient)" />
      </g>
      
      <!-- Queen 4 -->
      <g transform="translate(67.5, 67.5)">
        <path d="M0,0 L5,15 L-5,15 Z" fill="url(#queensGradient)" />
        <circle cx="0" cy="20" r="7" fill="url(#queensGradient)" />
      </g>
    </g>
    
    <!-- FEN Sequence Visualization -->
    <g transform="translate(0, 110)">
      <rect x="-80" y="0" width="160" height="25" rx="5" fill="#0F172A" stroke="url(#queensGradient)" stroke-width="2" />
      <text x="0" y="17" font-family="monospace" font-size="14" fill="white" text-anchor="middle">...Q...Q...Q...Q</text>
    </g>
  </g>
  
  <!-- Crown Icon -->
  <g transform="translate(200, 60)">
    <path d="M0,-25 L25,10 L15,15 L0,5 L-15,15 L-25,10 Z" fill="none" stroke="url(#queensGradient)" stroke-width="3" />
    <circle cx="-17" cy="-5" r="4" fill="url(#queensGradient)" />
    <circle cx="0" cy="-10" r="4" fill="url(#queensGradient)" />
    <circle cx="17" cy="-5" r="4" fill="url(#queensGradient)" />
  </g>
  
  <!-- Project Name 
  <text x="200" y="240" font-family="monospace" font-size="28" font-weight="bold" fill="white" text-anchor="middle">QUEENS</text>-->
</svg>