<?xml version="1.0" encoding="utf-8"?>
<svg xmlns="http://www.w3.org/2000/svg" viewBox="45.039 38.547 400 300" width="400px" height="300px" xmlns:bx="https://boxy-svg.com"><defs><filter id="glow" x="-20%" y="-20%" width="140%" height="140%"><feGaussianBlur stdDeviation="4" result="blur"/><feComposite in="SourceGraphic" in2="blur" operator="over"/></filter><linearGradient id="renderGradient" x1="0%" y1="0%" x2="100%" y2="100%"><stop offset="0" stop-color="#6366F1"/><stop offset="1" stop-color="#EC4899"/></linearGradient><style bx:fonts="Source Code Pro">@import url(https://fonts.googleapis.com/css2?family=Source+Code+Pro%3Aital%2Cwght%400%2C200..900%3B1%2C200..900&amp;display=swap);</style></defs><g id="object-3"><rect width="400" height="300" rx="15" fill="#1E293B" x="45.039" y="38.547" id="object-1"/><g transform="matrix(1, 0, 0, 1, 245.039261, 188.546539)" filter="url(#glow)" id="object-2"><g transform="matrix(1, 0, 0, 1, -9.77506, -2.0058)"><g transform="matrix(1, 0, 0, 1, -99.269272, -0.35598)"><rect x="-40" y="-50" width="80" height="100" rx="5" fill="#0F172A" stroke="url(#renderGradient)" stroke-width="2"/><text x="0" y="-60" font-family="monospace" font-size="9" fill="white" text-anchor="middle" style="white-space: pre;">TEMPLATE</text><text style="fill: rgb(255, 255, 255); font-family: &quot;Arial&quot;, sans-serif; font-size: 28px; white-space: pre;" transform="matrix(0.260211, 0, 0, 0.260211, -29.501883, -32.641598)" y="-6.4079999923706055"><tspan x="-15.338" y="-6.408"/><tspan x="-15.338000297546387" dy="1em">​</tspan><tspan>	</tspan><tspan x="-15.338000297546387" dy="1em">​</tspan><tspan>		</tspan><tspan x="-15.338000297546387" dy="1em">​</tspan><tspan>    </tspan><tspan/></text><text style="white-space: pre; fill: rgb(51, 51, 51); font-family: &quot;Arial&quot;, sans-serif; font-size: 28px;" x="-19.253" y="7.476"> </text><text style="white-space: pre; fill: rgb(51, 51, 51); font-family: &quot;Arial&quot;, sans-serif; font-size: 28px;" x="-17.83" y="16.731"> </text></g><polygon points="-138.28 -3.356 -128.28 -0.356 -138.28 2.644" fill="url(#renderGradient)"/><g style="" transform="matrix(0.644085, 0, 0, 0.644085, -39.841881, 0.897409)"><text style="fill: rgb(255, 255, 255); font-family: &quot;Source Code Pro&quot;; font-size: 10.2132px; font-weight: 600; white-space: pre;" x="-116.88" y="8.578">{{ items }}</text><text style="fill: rgb(255, 255, 255); font-family: &quot;Source Code Pro&quot;; font-size: 10.2132px; font-weight: 600; white-space: pre;" x="-128.31" y="-5.15">&lt;ul&gt;</text><text style="fill: rgb(255, 255, 255); font-family: &quot;Source Code Pro&quot;; font-size: 10.2132px; font-weight: 600; white-space: pre;" x="-128.31" y="-18.878">{{ title }}</text><text style="fill: rgb(255, 255, 255); font-family: &quot;Source Code Pro&quot;; font-size: 10.2132px; font-weight: 600; white-space: pre;" x="-135.07" y="-32.606">&lt;div&gt;</text><text style="fill: rgb(255, 255, 255); font-family: &quot;Source Code Pro&quot;; font-size: 10.2132px; font-weight: 600; white-space: pre;" x="-128.31" y="22.305">&lt;/ul&gt;</text><text style="fill: rgb(255, 255, 255); font-family: &quot;Source Code Pro&quot;; font-size: 10.2132px; font-weight: 600; white-space: pre;" x="-135.07" y="36.032">&lt;/div&gt;</text></g></g><g transform="matrix(1, 0, 0, 1, -0.090472, 3.74364)"><g transform="matrix(1, 0, 0, 1, -1.000015, -69.999992)"><rect x="-60" y="-30" width="120" height="60" rx="5" fill="#0F172A" stroke="url(#renderGradient)" stroke-width="2"/><g style="" transform="matrix(0.869743, 0, 0, 0.869743, -3.424079, -0.777325)"><text style="fill: rgb(255, 255, 255); font-family: &quot;Source Code Pro&quot;; font-size: 7px; font-weight: 600; text-anchor: middle; white-space: pre;" x="-36.76" y="-18.476">{ </text><text style="fill: rgb(255, 255, 255); font-family: &quot;Source Code Pro&quot;; font-size: 7px; font-weight: 600; text-anchor: middle; white-space: pre;" x="4.734" y="-11.153">  "title": "My List",</text><text style="fill: rgb(255, 255, 255); font-family: &quot;Source Code Pro&quot;; font-size: 7px; font-weight: 600; text-anchor: middle; white-space: pre;" x="-14.164" y="-3.831">  "items": [</text><text style="fill: rgb(255, 255, 255); font-family: &quot;Source Code Pro&quot;; font-size: 7px; font-weight: 600; text-anchor: middle; white-space: pre;" x="-10.273" y="4.277">    "Item 1",</text><text style="fill: rgb(255, 255, 255); font-family: &quot;Source Code Pro&quot;; font-size: 7px; font-weight: 600; text-anchor: middle; white-space: pre;" x="-12.373" y="12.188">    "Item 2"</text><text style="fill: rgb(255, 255, 255); font-family: &quot;Source Code Pro&quot;; font-size: 7px; font-weight: 600; text-anchor: middle; white-space: pre;" x="-33.062" y="18.135">  ]</text><text style="fill: rgb(255, 255, 255); font-family: &quot;Source Code Pro&quot;; font-size: 7px; font-weight: 600; text-anchor: middle; white-space: pre;" x="-38.86" y="25.457">}</text></g><text x="0" y="-40" font-family="monospace" font-size="9" fill="white" text-anchor="middle" style="white-space: pre;">DATA</text></g><polygon points="-4 -99.01 -1 -89.007 2 -99.01" fill="url(#renderGradient)"/></g><g transform="matrix(1, 0, 0, 1, -1.090487, -7.48728)"><g transform="matrix(1, 0, 0, 1, 0, 70.000008)"><rect x="-60" y="-30" width="120" height="60" rx="5" fill="#0F172A" stroke="url(#renderGradient)" stroke-width="2"/><rect x="-40" y="-15" width="80" height="10" rx="2" fill="#334155" opacity="0.7"/><rect x="-40" width="80" height="10" rx="2" fill="#334155" opacity="0.7"/><rect x="-40" y="15" width="80" height="10" rx="2" fill="#334155" opacity="0.7"/><text x="-20" y="-8.036" font-family="monospace" font-size="6" fill="white" text-anchor="start" style="white-space: pre;">Key-A</text><text x="20" y="-8.036" font-family="monospace" font-size="6" fill="white" text-anchor="start" style="white-space: pre;">HTML</text><text x="-20" y="6.964" font-family="monospace" font-size="6" fill="white" text-anchor="start" style="white-space: pre;">Key-B</text><text x="20" y="6.964" font-family="monospace" font-size="6" fill="white" text-anchor="start" style="white-space: pre;">HTML</text><text x="-20" y="21.964" font-family="monospace" font-size="6" fill="white" text-anchor="start" style="white-space: pre;">Key-C</text><text x="20" y="21.964" font-family="monospace" font-size="6" fill="white" text-anchor="start" style="white-space: pre;">HTML</text><text x="0" y="-40" font-family="monospace" font-size="9" fill="white" text-anchor="middle" style="white-space: pre;">CACHE</text></g><polygon points="-3 40.983 0 50.983 3 40.983" fill="url(#renderGradient)"/></g><g transform="matrix(1, 0, 0, 1, 6.86334, -2.36178)"><g transform="matrix(1, 0, 0, 1, 99.999992, 0)"><rect x="-40" y="-50" width="80" height="100" rx="5" fill="#0F172A" stroke="url(#renderGradient)" stroke-width="2"/><text x="0" y="-60" font-family="monospace" font-size="9" fill="white" text-anchor="middle" style="white-space: pre;">RESULT</text></g><polygon points="60.999 -3 70.999 0 60.999 3" fill="url(#renderGradient)"/><g style="" transform="matrix(0.588155, 0, 0, 0.588155, 154.012878, -2.773837)"><g transform="matrix(0.957995, 0, 0, 0.957995, -12.230372, -0.418351)" style=""><text style="fill: rgb(255, 255, 255); font-family: &quot;Source Code Pro&quot;; font-size: 10.2132px; font-weight: 600; white-space: pre;" x="-128.88" y="-4.863">&lt;ul&gt;</text><text style="fill: rgb(255, 255, 255); font-family: &quot;Source Code Pro&quot;; font-size: 10.2132px; font-weight: 600; white-space: pre;" x="-128.88" y="-20.597">My List</text><text style="fill: rgb(255, 255, 255); font-family: &quot;Source Code Pro&quot;; font-size: 10.2132px; font-weight: 600; white-space: pre;" x="-141.09" y="-34.039">&lt;div&gt;</text><text style="fill: rgb(255, 255, 255); font-family: &quot;Source Code Pro&quot;; font-size: 10.2132px; font-weight: 600; white-space: pre;" x="-128.88" y="35.772">&lt;/ul&gt;</text><text style="fill: rgb(255, 255, 255); font-family: &quot;Source Code Pro&quot;; font-size: 10.2132px; font-weight: 600; white-space: pre;" x="-141.09" y="52.078">&lt;/div&gt;</text><text style="fill: rgb(255, 255, 255); font-family: &quot;Source Code Pro&quot;; font-size: 10.2132px; font-weight: 600; white-space: pre;" x="-117.03" y="7.745">&lt;li&gt;Item 1&lt;/li&gt;</text><text style="fill: rgb(255, 255, 255); font-family: &quot;Source Code Pro&quot;; font-size: 10.2132px; font-weight: 600; white-space: pre;" x="-117.32" y="21.213">&lt;li&gt;Item 2&lt;/li&gt;</text></g></g></g><line x1="-100" y1="-60" x2="-20" y2="-60" stroke="url(#renderGradient)" stroke-width="1.5" stroke-dasharray="3 2"/><line x1="0" y1="10" x2="0" y2="40" stroke="url(#renderGradient)" stroke-width="1.5" stroke-dasharray="3 2"/><line x1="20" y1="-60" x2="100" y2="-60" stroke="url(#renderGradient)" stroke-width="1.5" stroke-dasharray="3 2"/></g></g></svg>