<svg viewBox="0 0 400 300" xmlns="http://www.w3.org/2000/svg">
  <defs>
    <linearGradient id="replicateGradient" x1="0%" y1="0%" x2="100%" y2="100%">
      <stop offset="0%" stop-color="#38BDF8" />
      <stop offset="100%" stop-color="#818CF8" />
    </linearGradient>
    <filter id="glow" x="-20%" y="-20%" width="140%" height="140%">
      <feGaussianBlur stdDeviation="4" result="blur" />
      <feComposite in="SourceGraphic" in2="blur" operator="over" />
    </filter>
  </defs>
  
  <!-- Background -->
  <rect width="400" height="300" rx="15" fill="#1E293B" />
  
  <!-- Website replication visualization -->
  <g transform="translate(200, 150)" filter="url(#glow)">
    <!-- Original website (left) -->
    <g transform="translate(-80, 0)">
      <rect x="-40" y="-50" width="80" height="100" rx="5" fill="#0F172A" stroke="url(#replicateGradient)" stroke-width="2" />
      
      <!-- Website header -->
      <rect x="-35" y="-45" width="70" height="15" rx="2" fill="#334155" />
      
      <!-- Website content mock -->
      <rect x="-35" y="-25" width="40" height="10" rx="2" fill="#475569" />
      <rect x="-35" y="-10" width="70" height="30" rx="2" fill="#475569" />
      <rect x="-35" y="25" width="70" height="20" rx="2" fill="#475569" />
      
      <text x="0" y="-60" font-family="monospace" font-size="10" fill="white" text-anchor="middle">ORIGINAL</text>
    </g>
    
    <!-- Replication process (center) -->
    <g>
      <!-- Replication arrows -->
      <line x1="-40" y1="-30" x2="40" y2="-30" stroke="url(#replicateGradient)" stroke-width="2" stroke-dasharray="4 2" />
      <polygon points="40,-34 50,-30 40,-26" fill="url(#replicateGradient)" />
      
      <line x1="-40" y1="0" x2="40" y2="0" stroke="url(#replicateGradient)" stroke-width="2" stroke-dasharray="4 2" />
      <polygon points="40,-4 50,0 40,4" fill="url(#replicateGradient)" />
      
      <line x1="-40" y1="30" x2="40" y2="30" stroke="url(#replicateGradient)" stroke-width="2" stroke-dasharray="4 2" />
      <polygon points="40,26 50,30 40,34" fill="url(#replicateGradient)" />
      
      <!-- Code representation -->
      <rect x="-20" y="-20" width="40" height="40" rx="5" fill="#0F172A" stroke="url(#replicateGradient)" stroke-width="2" />
      <text x="0" y="-8" font-family="monospace" font-size="5" fill="white" text-anchor="middle">&lt;html&gt;</text>
      <text x="0" y="0" font-family="monospace" font-size="5" fill="white" text-anchor="middle">&lt;head&gt;</text>
      <text x="0" y="8" font-family="monospace" font-size="5" fill="white" text-anchor="middle">&lt;body&gt;</text>
      <text x="0" y="16" font-family="monospace" font-size="5" fill="white" text-anchor="middle">...</text>
    </g>
    
    <!-- Local replica (right) -->
    <g transform="translate(80, 0)">
      <rect x="-40" y="-50" width="80" height="100" rx="5" fill="#0F172A" stroke="url(#replicateGradient)" stroke-width="2" />
      
      <!-- Website header -->
      <rect x="-35" y="-45" width="70" height="15" rx="2" fill="#334155" />
      
      <!-- Website content mock -->
      <rect x="-35" y="-25" width="40" height="10" rx="2" fill="#475569" />
      <rect x="-35" y="-10" width="70" height="30" rx="2" fill="#475569" />
      <rect x="-35" y="25" width="70" height="20" rx="2" fill="#475569" />
      
      <text x="0" y="-60" font-family="monospace" font-size="10" fill="white" text-anchor="middle">LOCALHOST</text>
      
      <!-- Hot reload icon -->
      <g transform="translate(30, -45) scale(0.5)">
        <path d="M 0 0 L 8 8 L 0 16 L -8 8 Z" fill="url(#replicateGradient)" />
        <circle cx="0" cy="8" r="12" fill="none" stroke="url(#replicateGradient)" stroke-width="2" stroke-dasharray="18 18" stroke-dashoffset="9">
          <animateTransform 
            attributeName="transform" 
            attributeType="XML" 
            type="rotate" 
            from="0 0 8" 
            to="360 0 8" 
            dur="3s" 
            repeatCount="indefinite" />
        </circle>
      </g>
    </g>
  </g>
  
  <!-- Text 
  <text x="200" y="260" font-family="monospace" font-size="24" fill="white" text-anchor="middle">REPLICATE</text>-->
</svg>