<svg viewBox="0 0 400 300" xmlns="http://www.w3.org/2000/svg">
  <defs>
    <linearGradient id="resolveGradient" x1="0%" y1="0%" x2="100%" y2="100%">
      <stop offset="0%" stop-color="#34D399" />
      <stop offset="100%" stop-color="#3B82F6" />
    </linearGradient>
    <filter id="glow" x="-20%" y="-20%" width="140%" height="140%">
      <feGaussianBlur stdDeviation="4" result="blur" />
      <feComposite in="SourceGraphic" in2="blur" operator="over" />
    </filter>
  </defs>
  
  <!-- Background -->
  <rect width="400" height="300" rx="15" fill="#1E293B" />
  
  <!-- Domain resolver visualization -->
  <g transform="translate(200, 150)" filter="url(#glow)">
    <!-- Central node (resolver) -->
    <circle cx="0" cy="0" r="30" fill="#0F172A" stroke="url(#resolveGradient)" stroke-width="3" />
    <text x="0" y="5" font-family="monospace" font-size="10" fill="white" text-anchor="middle">RESOLVER</text>
    
    <!-- Multiple threads radiating outward -->
    <g>
      <!-- Thread 1 -->
      <line x1="0" y1="0" x2="-90" y2="-60" stroke="url(#resolveGradient)" stroke-width="2" stroke-dasharray="4 2" />
      <rect x="-130" y="-80" width="80" height="20" rx="5" fill="#0F172A" stroke="url(#resolveGradient)" stroke-width="1" />
      <text x="-90" y="-66" font-family="monospace" font-size="8" fill="white" text-anchor="middle">example.com</text>
      
      <!-- Thread 2 -->
      <line x1="0" y1="0" x2="0" y2="-90" stroke="url(#resolveGradient)" stroke-width="2" stroke-dasharray="4 2" />
      <rect x="-40" y="-110" width="80" height="20" rx="5" fill="#0F172A" stroke="url(#resolveGradient)" stroke-width="1" />
      <text x="0" y="-96" font-family="monospace" font-size="8" fill="white" text-anchor="middle">api.site.org</text>
      
      <!-- Thread 3 -->
      <line x1="0" y1="0" x2="90" y2="-60" stroke="url(#resolveGradient)" stroke-width="2" stroke-dasharray="4 2" />
      <rect x="50" y="-80" width="80" height="20" rx="5" fill="#0F172A" stroke="url(#resolveGradient)" stroke-width="1" />
      <text x="90" y="-66" font-family="monospace" font-size="8" fill="white" text-anchor="middle">sub.domain.net</text>
      
      <!-- Thread 4 -->
      <line x1="0" y1="0" x2="-90" y2="60" stroke="url(#resolveGradient)" stroke-width="2" stroke-dasharray="4 2" />
      <rect x="-130" y="60" width="80" height="20" rx="5" fill="#0F172A" stroke="url(#resolveGradient)" stroke-width="1" />
      <text x="-90" y="74" font-family="monospace" font-size="8" fill="white" text-anchor="middle">blog.site.io</text>
      
      <!-- Thread 5 -->
      <line x1="0" y1="0" x2="90" y2="60" stroke="url(#resolveGradient)" stroke-width="2" stroke-dasharray="4 2" />
      <rect x="50" y="60" width="80" height="20" rx="5" fill="#0F172A" stroke="url(#resolveGradient)" stroke-width="1" />
      <text x="90" y="74" font-family="monospace" font-size="8" fill="white" text-anchor="middle">dev.app.co</text>
    </g>
    
    <!-- IP address results -->
    <rect x="-125" y="-95" width="70" height="15" rx="3" fill="#334155" opacity="0.8" />
    <text x="-90" y="-84" font-family="monospace" font-size="7" fill="#34D399" text-anchor="middle">192.168.1.1</text>
    
    <rect x="-35" y="-125" width="70" height="15" rx="3" fill="#334155" opacity="0.8" />
    <text x="0" y="-114" font-family="monospace" font-size="7" fill="#34D399" text-anchor="middle">10.0.0.5</text>
    
    <rect x="55" y="-95" width="70" height="15" rx="3" fill="#334155" opacity="0.8" />
    <text x="90" y="-84" font-family="monospace" font-size="7" fill="#34D399" text-anchor="middle">172.16.254.1</text>
    
    <rect x="-125" y="45" width="70" height="15" rx="3" fill="#334155" opacity="0.8" />
    <text x="-90" y="56" font-family="monospace" font-size="7" fill="#34D399" text-anchor="middle">8.8.8.8</text>
    
    <rect x="55" y="45" width="70" height="15" rx="3" fill="#334155" opacity="0.8" />
    <text x="90" y="56" font-family="monospace" font-size="7" fill="#34D399" text-anchor="middle">209.85.231.104</text>
  </g>
  
  <!-- Text 
  <text x="200" y="260" font-family="monospace" font-size="24" fill="white" text-anchor="middle">RESOLVE</text>-->
</svg>