<?xml version="1.0" encoding="utf-8"?>
<svg xmlns="http://www.w3.org/2000/svg" viewBox="46.107 62.753 400 300" width="400px" height="300px"><defs><filter id="glow" x="-20%" y="-20%" width="140%" height="140%"><feGaussianBlur stdDeviation="4" result="blur"/><feComposite in="SourceGraphic" in2="blur" operator="over"/></filter><linearGradient id="resolveGradient" x1="0%" y1="0%" x2="100%" y2="100%"><stop offset="0" stop-color="#34D399"/><stop offset="1" stop-color="#3B82F6"/></linearGradient></defs><g id="object-1"><rect width="400" height="300" rx="15" fill="#1E293B" x="46.107" y="62.753"/><g transform="matrix(1, 0, 0, 1, 246.106995, 220.253006)" filter="url(#glow)"><g><line x1="0" y1="0" x2="-90" y2="-60" stroke="url(#resolveGradient)" stroke-width="2" stroke-dasharray="4 2"/><rect x="-130" y="-80" width="80" height="20" rx="5" fill="#0F172A" stroke="url(#resolveGradient)" stroke-width="1"/><text x="-90" y="-67.33" font-family="monospace" font-size="8" fill="white" text-anchor="middle" style="white-space: pre;">example.com</text><line x1="0" y1="0" x2="0" y2="-90" stroke="url(#resolveGradient)" stroke-width="2" stroke-dasharray="4 2"/><line x1="0" y1="0" x2="90" y2="-60" stroke="url(#resolveGradient)" stroke-width="2" stroke-dasharray="4 2"/><rect x="50" y="-80" width="80" height="20" rx="5" fill="#0F172A" stroke="url(#resolveGradient)" stroke-width="1"/><text x="90" y="-67.33" font-family="monospace" font-size="8" fill="white" text-anchor="middle" style="white-space: pre;">sub.domain.net</text><line x1="0" y1="0" x2="-90" y2="60" stroke="url(#resolveGradient)" stroke-width="2" stroke-dasharray="4 2"/><rect x="-130" y="60" width="80" height="20" rx="5" fill="#0F172A" stroke="url(#resolveGradient)" stroke-width="1"/><text x="-90" y="72.67" font-family="monospace" font-size="8" fill="white" text-anchor="middle" style="white-space: pre;">blog.site.io</text><line x1="0" y1="0" x2="90" y2="60" stroke="url(#resolveGradient)" stroke-width="2" stroke-dasharray="4 2"/><rect x="50" y="60" width="80" height="20" rx="5" fill="#0F172A" stroke="url(#resolveGradient)" stroke-width="1"/><text x="90" y="72.67" font-family="monospace" font-size="8" fill="white" text-anchor="middle" style="white-space: pre;">dev.app.co</text></g><circle r="30" fill="#0F172A" stroke="url(#resolveGradient)" stroke-width="3"/><text x="0" y="3.382" font-family="monospace" font-size="10" fill="white" text-anchor="middle" style="white-space: pre;">RESOLVER</text><rect x="-125" y="-95" width="70" height="15" rx="3" fill="#334155" opacity="0.8"/><text x="-90" y="-85.186" font-family="monospace" font-size="7" fill="#34D399" text-anchor="middle" style="white-space: pre;">192.168.1.1</text><rect x="55" y="-95" width="70" height="15" rx="3" fill="#334155" opacity="0.8"/><text x="90" y="-85.186" font-family="monospace" font-size="7" fill="#34D399" text-anchor="middle" style="white-space: pre;">172.16.254.1</text><rect x="-125" y="45" width="70" height="15" rx="3" fill="#334155" opacity="0.8"/><text style="fill: rgb(211, 52, 52); font-family: monospace; font-size: 7px; text-anchor: middle; white-space: pre;" x="-90" y="54.814">8.8.8.8</text><rect x="55" y="45" width="70" height="15" rx="3" fill="#334155" opacity="0.8"/><text x="90" y="54.814" font-family="monospace" font-size="7" fill="#34D399" text-anchor="middle" style="white-space: pre;">209.85.231.104</text></g></g></svg>