<svg viewBox="0 0 400 300" xmlns="http://www.w3.org/2000/svg">
  <defs>
    <linearGradient id="secureGradient" x1="0%" y1="0%" x2="100%" y2="100%">
      <stop offset="0%" stop-color="#EC4899" />
      <stop offset="100%" stop-color="#8B5CF6" />
    </linearGradient>
    <filter id="glow" x="-20%" y="-20%" width="140%" height="140%">
      <feGaussianBlur stdDeviation="4" result="blur" />
      <feComposite in="SourceGraphic" in2="blur" operator="over" />
    </filter>
  </defs>
  
  <!-- Background -->
  <rect width="400" height="300" rx="15" fill="#1E293B" />
  
  <!-- Secure connection visualization -->
  <g transform="translate(200, 150)" filter="url(#glow)">
    <!-- Client side -->
    <rect x="-140" y="-40" width="80" height="80" rx="10" fill="#0F172A" stroke="url(#secureGradient)" stroke-width="3" />
    <text x="-100" y="-5" font-family="monospace" font-size="12" fill="white" text-anchor="middle">CLIENT</text>
    
    <!-- Server side -->
    <rect x="60" y="-40" width="80" height="80" rx="10" fill="#0F172A" stroke="url(#secureGradient)" stroke-width="3" />
    <text x="100" y="-5" font-family="monospace" font-size="12" fill="white" text-anchor="middle">SERVER</text>
    
    <!-- Secure channel visualization -->
    <rect x="-50" y="-15" width="100" height="30" rx="15" fill="none" stroke="url(#secureGradient)" stroke-width="3" />
    
    <!-- Encryption symbols -->
    <g opacity="0.8">
      <text x="-15" y="5" font-family="monospace" font-size="10" fill="url(#secureGradient)" text-anchor="middle">01010</text>
      <text x="0" y="5" font-family="monospace" font-size="10" fill="url(#secureGradient)" text-anchor="middle">11001</text>
      <text x="15" y="5" font-family="monospace" font-size="10" fill="url(#secureGradient)" text-anchor="middle">00101</text>
    </g>
    
    <!-- Shield icon -->
    <path d="M 0 -60 L 20 -50 L 20 -20 L 0 -10 L -20 -20 L -20 -50 Z" fill="none" stroke="url(#secureGradient)" stroke-width="3" />
    <path d="M -10 -40 L -5 -35 L 0 -45 L 10 -35 L 15 -40" fill="none" stroke="url(#secureGradient)" stroke-width="2" stroke-linecap="round" />
  </g>
  
  <!-- Text 
  <text x="200" y="260" font-family="monospace" font-size="24" fill="white" text-anchor="middle">SECURE</text>-->
</svg>