<svg viewBox="0 0 400 300" xmlns="http://www.w3.org/2000/svg">
  <defs>
    <linearGradient id="templatesGradient" x1="0%" y1="0%" x2="100%" y2="100%">
      <stop offset="0%" stop-color="#F472B6" />
      <stop offset="100%" stop-color="#F59E0B" />
    </linearGradient>
    <filter id="glow" x="-20%" y="-20%" width="140%" height="140%">
      <feGaussianBlur stdDeviation="4" result="blur" />
      <feComposite in="SourceGraphic" in2="blur" operator="over" />
    </filter>
  </defs>
  
  <!-- Background -->
  <rect width="400" height="300" rx="15" fill="#1E293B" />
  
  <!-- Templates browser visualization -->
  <g transform="translate(200, 150)" filter="url(#glow)">
    <!-- Browser window with templates -->
    <rect x="-100" y="-70" width="200" height="140" rx="5" fill="#0F172A" stroke="url(#templatesGradient)" stroke-width="2" />
    
    <!-- Browser tab bar -->
    <rect x="-100" y="-70" width="200" height="20" rx="5" fill="#334155" />
    <rect x="-100" y="-70" width="70" height="20" rx="5" fill="#475569" />
    <text x="-65" y="-56" font-family="monospace" font-size="10" fill="white" text-anchor="middle">CVE-DB</text>
    
    <!-- Browser content -->
    <line x1="-100" y1="-50" x2="100" y2="-50" stroke="#475569" stroke-width="1" />
    
    <!-- Search bar -->
    <rect x="-90" y="-42" width="180" height="16" rx="3" fill="#334155" stroke="#475569" stroke-width="1" />
    <text x="-75" y="-30" font-family="monospace" font-size="8" fill="#94A3B8">Search CVE/CWE...</text>
    
    <!-- Template entries -->
    <g>
      <!-- Entry 1 -->
      <rect x="-90" y="-20" width="180" height="20" rx="2" fill="#334155" opacity="0.7" />
      <text x="-80" y="-5" font-family="monospace" font-size="9" fill="white">CVE-2023-12345</text>
      <text x="30" y="-5" font-family="monospace" font-size="9" fill="#F472B6">CRITICAL</text>
      
      <!-- Entry 2 -->
      <rect x="-90" y="5" width="180" height="20" rx="2" fill="#334155" opacity="0.7" />
      <text x="-80" y="20" font-family="monospace" font-size="9" fill="white">CWE-787</text>
      <text x="30" y="20" font-family="monospace" font-size="9" fill="#F59E0B">HIGH</text>
      
      <!-- Entry 3 -->
      <rect x="-90" y="30" width="180" height="20" rx="2" fill="#334155" opacity="0.7" />
      <text x="-80" y="45" font-family="monospace" font-size="9" fill="white">TEMPLATE-0042</text>
      <text x="30" y="45" font-family="monospace" font-size="9" fill="#60A5FA">MEDIUM</text>
    </g>
    
    <!-- Side navigation -->
    <g transform="translate(-130, 0)">
      <rect x="-20" y="-60" width="40" height="120" rx="5" fill="#334155" />
      <circle cx="0" cy="-40" r="10" fill="url(#templatesGradient)" opacity="0.8" />
      <circle cx="0" cy="-5" r="10" fill="#475569" />
      <circle cx="0" cy="30" r="10" fill="#475569" />
    </g>
  </g>
  
  <!-- Text
  <text x="200" y="260" font-family="monospace" font-size="24" fill="white" text-anchor="middle">TEMPLATES</text> -->
</svg>